<?xml version="1.0" encoding="UTF-8"?>
<svg width="400" height="400" viewBox="0 0 400 400" fill="none" xmlns="http://www.w3.org/2000/svg">
  <!-- Dark background with gradient -->
  <rect width="400" height="400" rx="20" fill="url(#paint0_linear)" />
  
  <!-- Music note symbol -->
  <path d="M235 120C235 115.9 232.4 112.4 228.5 111L168.5 91C165.2 89.8 161.6 90.5 159 92.8C156.4 95.1 155 98.6 155 102.3V242.7C147.5 237.4 138.3 234.4 128.3 234.4C101.9 234.4 80 256.4 80 283.8C80 311.1 101.9 333.1 128.3 333.1C154.7 333.1 176.7 311.1 176.7 283.8V152.7L235 171.8V217.1C227.5 211.8 218.3 208.8 208.3 208.8C181.9 208.8 160 230.7 160 258.1C160 285.5 181.9 307.5 208.3 307.5C234.7 307.5 256.7 285.5 256.7 258.1V120H235Z" fill="white"/>
  
  <!-- Record grooves -->
  <circle cx="200" cy="200" r="160" stroke="#444444" stroke-width="1" fill="none" />
  <circle cx="200" cy="200" r="140" stroke="#444444" stroke-width="1" fill="none" />
  <circle cx="200" cy="200" r="120" stroke="#444444" stroke-width="1" fill="none" />
  <circle cx="200" cy="200" r="100" stroke="#444444" stroke-width="1" fill="none" />
  <circle cx="200" cy="200" r="80" stroke="#444444" stroke-width="1" fill="none" />
  <circle cx="200" cy="200" r="60" stroke="#444444" stroke-width="1" fill="none" />
  <circle cx="200" cy="200" r="40" stroke="#444444" stroke-width="1" fill="none" />
  
  <!-- Center hole -->
  <circle cx="200" cy="200" r="20" fill="#333333" />
  
  <!-- Gradient definition -->
  <defs>
    <linearGradient id="paint0_linear" x1="0" y1="0" x2="400" y2="400" gradientUnits="userSpaceOnUse">
      <stop offset="0" stop-color="#1A1A1A" />
      <stop offset="1" stop-color="#303030" />
    </linearGradient>
  </defs>
</svg>