<?xml version="1.0" encoding="UTF-8" standalone="no"?>
<svg width="500" height="500" viewBox="0 0 500 500" xmlns="http://www.w3.org/2000/svg">
  <!-- Background circle -->
  <circle cx="250" cy="250" r="240" fill="#333333" />
  
  <!-- Center hole -->
  <circle cx="250" cy="250" r="45" fill="#121212" />
  
  <!-- Subtle vinyl grooves -->
  <g opacity="0.12">
    <circle cx="250" cy="250" r="220" fill="none" stroke="#ffffff" stroke-width="1" />
    <circle cx="250" cy="250" r="200" fill="none" stroke="#ffffff" stroke-width="1" />
    <circle cx="250" cy="250" r="180" fill="none" stroke="#ffffff" stroke-width="1" />
    <circle cx="250" cy="250" r="160" fill="none" stroke="#ffffff" stroke-width="1" />
    <circle cx="250" cy="250" r="140" fill="none" stroke="#ffffff" stroke-width="1" />
    <circle cx="250" cy="250" r="120" fill="none" stroke="#ffffff" stroke-width="1" />
    <circle cx="250" cy="250" r="100" fill="none" stroke="#ffffff" stroke-width="1" />
    <circle cx="250" cy="250" r="80" fill="none" stroke="#ffffff" stroke-width="1" />
    <circle cx="250" cy="250" r="60" fill="none" stroke="#ffffff" stroke-width="1" />
  </g>

  <!-- Vinyl highlights -->
  <circle cx="250" cy="250" r="242" fill="none" stroke="#ffffff" stroke-width="1" opacity="0.5" />
  <circle cx="250" cy="250" r="246" fill="none" stroke="#ffffff" stroke-width="1" opacity="0.2" />
  
  <!-- Music note icon -->
  <g fill="#ffffff" opacity="0.3" transform="translate(190, 160) scale(1.2)">
    <path d="M70 30 L70 100 Q70 120 50 120 T30 100 T50 80 T70 100" stroke="#ffffff" stroke-width="2" fill="none"/>
    <circle cx="50" cy="100" r="8" />
    <circle cx="30" cy="40" r="20" />
  </g>
</svg>