<?xml version="1.0" encoding="UTF-8"?>
<svg width="400" height="400" viewBox="0 0 400 400" fill="none" xmlns="http://www.w3.org/2000/svg">
  <rect width="400" height="400" fill="#121212"/>
  
  <!-- Vinyl record with subtle concentric rings -->
  <circle cx="200" cy="200" r="150" fill="#1E1E1E"/>
  <circle cx="200" cy="200" r="147" stroke="#333333" stroke-width="1"/>
  <circle cx="200" cy="200" r="130" stroke="#333333" stroke-width="1"/>
  <circle cx="200" cy="200" r="110" stroke="#333333" stroke-width="1"/>
  <circle cx="200" cy="200" r="90" stroke="#333333" stroke-width="1"/>
  <circle cx="200" cy="200" r="70" stroke="#333333" stroke-width="1"/>
  <circle cx="200" cy="200" r="50" stroke="#333333" stroke-width="1"/>
  
  <!-- Center hole and label -->
  <circle cx="200" cy="200" r="30" fill="#2A2A2A"/>
  <circle cx="200" cy="200" r="15" fill="#121212"/>
  
  <!-- Music note icon -->
  <g opacity="0.7">
    <path d="M235 150V220C235 226.627 229.627 232 223 232C216.373 232 211 226.627 211 220C211 213.373 216.373 208 223 208C224.692 208 226.321 208.332 227.821 208.941V170.118L180 184.706V240C180 246.627 174.627 252 168 252C161.373 252 156 246.627 156 240C156 233.373 161.373 228 168 228C169.692 228 171.321 228.332 172.821 228.941V176L235 150Z" fill="white"/>
  </g>
</svg>